# xmcd
#
# Track frame offsets:
#	150
#	16898
#	38371
#
# Disc length: 749 seconds
#
# Revision: 2
# Processed by: cddbd v1.5.2PL0 Copyright (c) Steve Scherf et al.
# Submitted via: EasyCDDAExtractor 2011.0.0.0
#
DISCID=1202eb03
DTITLE=Scooter - Rebel Yell MCD
DYEAR=1966
DGENRE=Country
TTITLE0=Rebell Yell (radio edit)
TTITLE1=Rebel Yell (Extended mix)
TTITLE2=Euphoria
EXTD=
EXTT0=
EXTT1=
EXTT2=
PLAYORDER=
